<svg xmlns="http://www.w3.org/2000/svg" xmlns:xlink="http://www.w3.org/1999/xlink" width="500" zoomAndPan="magnify" viewBox="0 0 375 374.999991" height="500" preserveAspectRatio="xMidYMid meet" version="1.0"><rect x="-37.5" width="450" fill="#ffffff" y="-37.499999" height="449.999989" fill-opacity="1"/><rect x="-37.5" width="450" fill="#ffffff" y="-37.499999" height="449.999989" fill-opacity="1"/><path fill="#16bdac" d="M 185.855469 155.363281 C 199.792969 155.363281 212.476562 156.933594 221.75 159.453125 C 233.082031 162.527344 240.199219 167.730469 240.199219 174.316406 L 240.199219 240.507812 C 240.199219 247.070312 233.144531 252.273438 221.75 255.371094 C 201.773438 260.808594 169.941406 260.808594 149.964844 255.371094 C 138.570312 252.273438 131.515625 247.070312 131.515625 240.507812 L 131.515625 174.316406 C 131.515625 167.738281 138.609375 162.535156 149.964844 159.453125 C 159.214844 156.933594 171.921875 155.363281 185.855469 155.363281 Z M 228.804688 186.71875 C 208.785156 195.382812 162.929688 195.382812 142.894531 186.71875 L 142.894531 240.5 C 142.894531 241.25 146.742188 242.691406 152.941406 244.371094 C 170.980469 249.269531 200.742188 249.269531 218.765625 244.371094 C 224.980469 242.691406 228.8125 241.25 228.8125 240.5 L 228.8125 186.71875 Z M 218.761719 170.417969 C 200.742188 165.515625 170.972656 165.515625 152.933594 170.417969 C 146.742188 172.117188 142.886719 173.535156 142.886719 174.308594 C 142.886719 175.058594 146.734375 176.476562 152.933594 178.175781 C 170.972656 183.078125 200.734375 183.078125 218.761719 178.175781 C 224.972656 176.476562 228.804688 175.058594 228.804688 174.308594 C 228.804688 173.535156 224.972656 172.117188 218.761719 170.417969 Z M 121.28125 104.375 L 137.996094 75.433594 L 137.996094 75.410156 C 159.070312 38.921875 211.136719 39.0625 232.058594 75.433594 L 259.992188 124.011719 C 261.539062 126.695312 260.636719 130.117188 257.988281 131.710938 L 244.933594 139.515625 L 293.753906 158.65625 L 300.996094 107 L 286.265625 115.148438 C 283.464844 116.695312 280.027344 115.6875 278.414062 112.628906 L 250.714844 64.488281 C 221.527344 13.734375 148.394531 13.710938 119.035156 64.507812 L 102.324219 93.4375 Z M 147.796875 81.109375 L 128.269531 114.9375 C 126.699219 117.644531 123.238281 118.59375 120.53125 117.023438 L 91.753906 100.421875 C 89.046875 98.875 88.121094 95.417969 89.667969 92.683594 L 109.21875 58.8125 C 142.8125 0.707031 226.914062 0.320312 260.546875 58.835938 L 285.664062 102.511719 L 305.472656 91.5625 C 306.503906 91 307.710938 90.742188 308.976562 90.917969 C 312.074219 91.351562 314.242188 94.210938 313.820312 97.328125 L 304.03125 167.175781 C 303.5625 171.046875 299.707031 173.199219 296.308594 171.867188 L 230.035156 145.867188 C 225.6875 144.167969 225.132812 138.144531 229.191406 135.714844 L 247.382812 124.835938 L 222.21875 81.09375 C 205.710938 52.378906 164.59375 52.015625 147.796875 81.109375 Z M 132.417969 307.6875 L 99.023438 307.6875 L 99.023438 307.710938 C 56.957031 307.710938 30.894531 262.59375 51.992188 226.230469 L 80.101562 177.738281 C 81.671875 175.007812 85.09375 174.082031 87.96875 175.734375 L 101.039062 183.023438 L 93.210938 131.179688 L 44.871094 150.730469 L 59.253906 159.394531 C 61.984375 161.023438 62.84375 164.46875 61.105469 167.351562 L 33.171875 215.535156 C 3.796875 266.21875 40.460938 329.527344 99.023438 329.527344 L 99.023438 329.550781 L 132.417969 329.550781 Z M 99.023438 296.351562 L 138.117188 296.328125 C 141.257812 296.328125 143.789062 298.863281 143.789062 302.027344 L 143.789062 335.234375 L 143.765625 335.234375 C 143.765625 338.351562 141.234375 340.890625 138.109375 340.890625 L 99.015625 340.890625 L 99.015625 340.914062 C 31.964844 340.914062 -10.535156 268.289062 23.339844 209.84375 L 48.609375 166.25 L 29.28125 154.597656 C 25.363281 152.230469 25.667969 146.230469 30.097656 144.472656 L 95.28125 118.109375 C 99 116.453125 102.832031 118.691406 103.390625 122.363281 L 114.011719 192.773438 L 113.992188 192.773438 C 114.703125 197.378906 109.757812 200.882812 105.621094 198.578125 L 87.105469 188.253906 L 61.816406 231.90625 C 45.21875 260.527344 65.40625 296.335938 99.023438 296.335938 Z M 302.933594 196.355469 L 319.644531 225.28125 C 340.765625 261.839844 314.546875 306.828125 272.617188 306.761719 L 216.574219 306.675781 C 213.480469 306.675781 210.960938 304.160156 210.914062 301.0625 L 210.679688 285.882812 L 169.667969 318.589844 L 210.808594 350.695312 L 211.113281 333.898438 C 211.179688 330.757812 213.738281 328.261719 216.878906 328.304688 L 272.746094 328.414062 C 286.960938 328.433594 299.84375 324.734375 310.808594 318.414062 L 310.785156 318.414062 C 334.179688 304.910156 348.867188 279.402344 348.914062 252.433594 C 348.9375 239.726562 345.6875 226.648438 338.589844 214.351562 L 321.875 185.40625 Z M 309.835938 230.980469 L 290.285156 197.128906 L 290.285156 197.105469 C 288.714844 194.421875 289.640625 190.929688 292.371094 189.367188 L 321.125 172.769531 C 323.832031 171.199219 327.300781 172.144531 328.863281 174.855469 L 348.414062 208.707031 C 364.4375 236.472656 363.917969 269.261719 348.414062 296.148438 C 340.820312 309.289062 329.894531 320.492188 316.480469 328.253906 L 316.480469 328.230469 C 304.03125 335.519531 288.890625 339.777344 272.738281 339.753906 L 222.347656 339.671875 L 221.914062 362.210938 C 221.847656 366.769531 216.523438 369.5625 212.75 366.617188 L 157.285156 323.328125 C 154.253906 321.113281 153.886719 316.636719 156.960938 314.1875 L 212.613281 269.800781 C 216.273438 266.894531 221.757812 269.414062 221.816406 274.160156 L 222.144531 295.34375 L 272.59375 295.425781 C 305.835938 295.472656 326.5625 259.96875 309.835938 230.980469 Z M 309.835938 230.980469 " fill-opacity="1" fill-rule="nonzero"/></svg>